<svg width="136" height="125" viewBox="0 0 136 125" fill="none" xmlns="http://www.w3.org/2000/svg">
<path d="M135.45 30.8485C135.45 47.8857 121.639 61.6971 104.601 61.6971C87.5643 61.6971 73.7529 47.8857 73.7529 30.8485C73.7529 13.8114 87.5643 0 104.601 0C121.639 0 135.45 13.8114 135.45 30.8485Z" fill="url(#paint0_radial)"/>
<path d="M135.45 75.1385C135.45 87.6895 125.257 97.8643 112.678 97.8643H30.2778C13.557 97.8643 0 84.3367 0 67.6431C0 50.9542 13.557 37.4218 30.2778 37.4218C31.7774 37.4218 33.2514 37.5367 34.6966 37.7458C41.5342 24.1926 55.5964 14.8923 71.8408 14.8923C91.4968 14.8923 107.963 28.5141 112.29 46.8147C112.721 48.6419 113.033 50.5138 113.212 52.4207V52.4255C125.538 52.7064 135.45 62.7663 135.45 75.1385Z" fill="#F5F5F5"/>
<path d="M67.8538 103.892C63.3265 106.513 60.2783 111.405 60.2783 117.012C60.2783 117.213 60.2811 117.412 60.2894 117.609C60.6599 127.134 75.0477 127.134 75.4181 117.609C75.4264 117.412 75.4292 117.213 75.4292 117.012C75.4306 111.405 72.3811 106.513 67.8538 103.892V103.892Z" fill="#ADD0FA"/>
<path d="M38.7799 82.9717C34.2527 85.5927 31.2031 90.4849 31.2031 96.0918C31.2031 96.2923 31.2073 96.4913 31.2156 96.6904C31.5847 106.214 45.9738 106.214 46.3443 96.6904C46.3512 96.4913 46.3554 96.2923 46.3554 96.0918C46.3554 90.4849 43.3072 85.5927 38.7799 82.9717V82.9717Z" fill="#ADD0FA"/>
<path d="M100.94 89.7087C96.4124 92.3297 93.3643 97.222 93.3643 102.829C93.3643 103.029 93.3684 103.228 93.3753 103.427C93.7458 112.951 108.134 112.951 108.504 103.427C108.512 103.228 108.515 103.029 108.515 102.829C108.517 97.222 105.468 92.3297 100.94 89.7087V89.7087Z" fill="#ADD0FA"/>
<defs>
<radialGradient id="paint0_radial" cx="0" cy="0" r="1" gradientUnits="userSpaceOnUse" gradientTransform="translate(104.601 30.8485) rotate(90) scale(42.9378)">
<stop stop-color="#FFD88B"/>
<stop offset="0.0001" stop-color="#FFBA33"/>
<stop offset="1" stop-color="#FFA900"/>
</radialGradient>
</defs>
</svg>
